HIERARCHY
ROOT Hips
{
	OFFSET 0.00000 0.00000 0.00000
	CHANNELS 6 Xposition Yposition Zposition Zrotation Yrotation Xrotation 
	JOINT LHipJoint
	{
		OFFSET 0 0 0
		CHANNELS 3 Zrotation Yrotation Xrotation
		JOINT LeftHip
		{
			OFFSET 1.76014 -1.80163 0.38499
			CHANNELS 3 Zrotation Yrotation Xrotation
			JOINT LeftKnee
			{
				OFFSET 2.46817 -6.78126 0.00000
				CHANNELS 3 Zrotation Yrotation Xrotation
				JOINT LeftAnkle
				{
					OFFSET 2.79348 -7.67503 0.00000
					CHANNELS 3 Zrotation Yrotation Xrotation
					JOINT LeftToe
					{
						OFFSET 0.09421 -0.25885 1.91403
						CHANNELS 3 Zrotation Yrotation Xrotation
						End Site
						{
							OFFSET 0.00000 -0.00000 0.97975
						}
					}
				}
			}
		}
	}
	JOINT RHipJoint
	{
		OFFSET 0 0 0
		CHANNELS 3 Zrotation Yrotation Xrotation
		JOINT RightHip
		{
			OFFSET -1.77926 -1.80163 0.38499
			CHANNELS 3 Zrotation Yrotation Xrotation
			JOINT RightKnee
			{
				OFFSET -2.51996 -6.92353 0.00000
				CHANNELS 3 Zrotation Yrotation Xrotation
				JOINT RightAnkle
				{
					OFFSET -2.76109 -7.58603 0.00000
					CHANNELS 3 Zrotation Yrotation Xrotation
					JOINT RightToe
					{
						OFFSET -0.08067 -0.22163 1.86812
						CHANNELS 3 Zrotation Yrotation Xrotation
						End Site
						{
							OFFSET -0.00000 -0.00000 0.95558
						}
					}
				}
			}
		}
	}
	JOINT lowerback
	{
		OFFSET 0 0 0
		CHANNELS 3 Zrotation Yrotation Xrotation
		JOINT Chest
		{
			OFFSET 0.05537 1.92033 -0.03713
			CHANNELS 3 Zrotation Yrotation Xrotation
			JOINT Chest2
			{
				OFFSET 0.04452 1.90073 0.10860
				CHANNELS 3 Zrotation Yrotation Xrotation
				JOINT lowerneck
				{
					OFFSET 0 0 0
					CHANNELS 3 Zrotation Yrotation Xrotation
					JOINT Neck
					{
						OFFSET 0.00903 1.74649 0.02074
						CHANNELS 3 Zrotation Yrotation Xrotation
						JOINT Head
						{
							OFFSET -0.08608 1.67844 -0.12081
							CHANNELS 3 Zrotation Yrotation Xrotation
							End Site
							{
								OFFSET -0.03521 1.83380 -0.05059
							}
						}
					}
				}
				JOINT LeftCollar
				{
					OFFSET 0 0 0
					CHANNELS 3 Zrotation Yrotation Xrotation
					JOINT LeftShoulder
					{
						OFFSET 3.28197 0.84325 -0.19106
CHANNELS 3 Zrotation Xrotation Yrotation
						JOINT LeftElbow
						{
OFFSET 0 -5.243180 -0.000000
CHANNELS 3 Zrotation Xrotation Yrotation
							JOINT LeftWrist
							{
OFFSET 0 -2.989990 0.000000
CHANNELS 3 Zrotation Xrotation Yrotation
								JOINT lhand
								{
									OFFSET 0 0 0
CHANNELS 3 Zrotation Xrotation Yrotation
									JOINT LFingers
									{
OFFSET 0 -0.726740 0.000000
CHANNELS 3 Zrotation Xrotation Yrotation
										End Site
										{
OFFSET 0 -0.585920 0.000000
										}
									}
								}
								JOINT LThumb
								{
OFFSET 0 0.000000 0.000000
CHANNELS 3 Zrotation Xrotation Yrotation
									End Site
									{
OFFSET 0 -0.594870 0.594870
									}
								}
							}
						}
					}
				}
				JOINT RightCollar
				{
					OFFSET 0 0 0
					CHANNELS 3 Zrotation Yrotation Xrotation
					JOINT RightShoulder
					{
						OFFSET -3.30963 0.78377 0.14264
CHANNELS 3 Zrotation Xrotation Yrotation
						JOINT RightElbow
						{
OFFSET 0 -5.370450 0.000000
CHANNELS 3 Zrotation Xrotation Yrotation
							JOINT RightWrist
							{
OFFSET 0 -2.927920 0.000000
CHANNELS 3 Zrotation Xrotation Yrotation
								JOINT rhand
								{
									OFFSET 0 0 0
CHANNELS 3 Zrotation Xrotation Yrotation
									JOINT RFingers
									{
OFFSET 0 -0.784500 0.000000
CHANNELS 3 Zrotation Xrotation Yrotation
										End Site
										{
OFFSET 0 -0.632480 0.000000
										}
									}
								}
								JOINT RThumb
								{
OFFSET 0 0.000000 0.000000
CHANNELS 3 Zrotation Xrotation Yrotation
									End Site
									{
OFFSET 0 -0.642140 0.642140
									}
								}
							}
						}
					}
				}
			}
		}
	}
}
MOTION
Frames: 6
Frame Time: 0.008333333333333333
0.752751 15.378116 -2.578866 8.706266 18.499880 33.939258 0.000000 0.000000 0.000000 -14.420225 -27.899951 -76.697851 10.355074 17.604731 60.668615 -0.154767 -12.025864 -6.077868 0.051444 -1.463498 -4.025203 0.000000 0.000000 0.000000 3.219467 -3.049307 -80.958675 -13.866315 -19.072962 71.795832 -0.903086 -3.840955 -19.737308 -0.439845 4.221460 -11.705589 9.438043 -2.090023 35.518302 9.506401 1.784697 10.900744 4.474535 0.827773 -5.828385 4.856263 -6.064152 -0.412776 -8.385599 -11.186649 -31.671363 -2.836990 -5.048129 -10.888507 0.000000 0.000000 0.000000 15.901638 17.096710 -25.110685 135.868311 -50.335921 98.431775 40.583761 4.265368 -30.647141 0.000000 0.000000 0.000000 -7.125000 0.000000 0.000000 13.408829 67.490506 -7.306556 0.000000 0.000000 0.000000 -117.270709 -77.411240 -67.972911 -101.850414 -59.461688 -70.244088 -37.065153 -47.255791 12.991512 0.000000 0.000000 0.000000 7.125000 0.000000 0.000000 -9.223596 45.899430 0.206812
0.881996 15.326834 -2.610360 9.471796 15.545003 34.392760 0.000000 0.000000 0.000000 -16.415534 -27.068919 -77.260235 10.478482 17.670304 61.076052 -0.077470 -11.332021 -6.748044 0.060738 -1.589422 -4.372261 0.000000 0.000000 0.000000 1.186697 -2.554852 -82.240240 -13.974747 -19.106356 72.127337 -0.836893 -3.387976 -18.827731 -0.845773 5.865830 -16.395733 10.050339 -2.480709 35.699605 9.295536 1.497969 10.718433 4.048269 0.679291 -6.027662 4.650078 -5.502449 -0.517712 -9.431578 -10.715268 -31.842141 -3.246042 -4.703828 -10.946573 0.000000 0.000000 0.000000 16.046871 17.219131 -24.801973 135.640941 -50.450556 98.256594 39.569860 3.590063 -30.334964 0.000000 0.000000 0.000000 -7.125000 0.000000 0.000000 11.838010 66.827207 -6.261142 0.000000 0.000000 0.000000 -120.989517 -74.745444 -71.162263 -98.893485 -59.698950 -67.694180 -38.044107 -47.843030 12.159407 0.000000 0.000000 0.000000 7.125000 0.000000 0.000000 -10.124908 45.037634 0.009816
0.977811 15.253782 -2.623514 10.007286 13.018325 34.948607 0.000000 0.000000 0.000000 -17.928981 -26.234026 -78.332358 10.701562 17.785956 61.808529 -0.013462 -10.828852 -7.384201 0.059002 -1.566899 -4.310041 0.000000 0.000000 0.000000 -0.381936 -2.106137 -83.828527 -14.138802 -19.155642 72.627943 -0.791205 -2.586584 -17.930986 -0.879800 5.979552 -16.725174 10.531492 -2.722325 35.645002 9.144400 1.349439 10.317051 3.765678 0.586349 -6.282374 5.186527 -4.951778 -1.464518 -11.413548 -10.434122 -31.518274 -4.137270 -4.488034 -10.754829 0.000000 0.000000 0.000000 16.148249 17.078418 -25.175858 135.658731 -50.441631 98.270343 39.144405 2.880693 -29.706820 0.000000 0.000000 0.000000 -7.125000 0.000000 0.000000 11.270310 65.992396 -5.742001 0.000000 0.000000 0.000000 -122.983552 -72.100515 -72.499414 -96.412704 -59.843915 -65.550657 -38.626494 -47.530114 11.923267 0.000000 0.000000 0.000000 7.125000 0.000000 0.000000 -10.666179 44.835307 -0.043851
1.060999 15.192294 -2.614275 10.627621 10.796214 35.250017 0.000000 0.000000 0.000000 -19.375784 -25.694613 -78.965423 10.912651 17.892014 62.497439 0.057953 -10.294816 -8.122546 0.065242 -1.647428 -4.532183 0.000000 0.000000 0.000000 -1.779835 -1.947808 -85.051118 -14.311082 -19.205699 73.152392 -0.781653 -1.025480 -17.104304 -0.467305 4.384549 -12.161097 10.795541 -3.070490 35.702881 9.118813 1.063436 9.776976 3.718182 0.418672 -6.881671 4.758942 -4.246681 -2.024057 -13.207900 -9.932361 -31.402188 -4.808473 -4.051368 -10.624648 0.000000 0.000000 0.000000 15.840282 16.857600 -25.749198 135.280793 -50.630136 97.978515 38.984289 2.875260 -29.872427 0.000000 0.000000 0.000000 -7.125000 0.000000 0.000000 11.006143 66.129967 -5.640760 0.000000 0.000000 0.000000 -124.541829 -69.436877 -72.706229 -93.196091 -59.960731 -62.767462 -37.580198 -47.068780 12.387826 0.000000 0.000000 0.000000 7.125000 0.000000 0.000000 -9.693754 45.246796 0.061161
1.106260 15.136349 -2.589514 10.958593 8.784673 35.383294 0.000000 0.000000 0.000000 -20.250611 -25.099382 -79.546908 11.127585 17.996983 63.195202 0.136555 -9.624456 -8.898729 0.080096 -1.825366 -5.023337 0.000000 0.000000 0.000000 -2.924943 -1.380196 -85.968539 -14.465307 -19.249122 73.620723 -0.753816 -0.569929 -16.620990 -0.570771 4.836649 -13.443609 11.015595 -3.247791 35.659845 8.884980 0.921060 9.307774 3.414864 0.325536 -7.364175 4.682365 -3.569783 -2.567345 -14.850793 -9.401415 -31.444647 -5.496903 -3.653676 -10.554080 0.000000 0.000000 0.000000 15.954102 16.568167 -26.463532 134.845976 -50.843701 97.641857 38.942795 2.628934 -29.495891 0.000000 0.000000 0.000000 -7.125000 0.000000 0.000000 10.997237 65.694432 -5.525933 0.000000 0.000000 0.000000 -125.752105 -66.125211 -72.314171 -88.258203 -59.988036 -58.491602 -35.783865 -45.719685 12.195705 0.000000 0.000000 0.000000 7.125000 0.000000 0.000000 -7.971878 44.749103 -0.049687
1.132899 15.111786 -2.558355 11.152172 7.435472 35.336926 0.000000 0.000000 0.000000 -20.845893 -24.659375 -79.715059 11.274705 18.066917 63.670353 0.186383 -9.206423 -9.404519 0.042530 -1.328107 -3.652228 0.000000 0.000000 0.000000 -3.627786 -0.980946 -86.337329 -14.551173 -19.272746 73.880951 -0.764726 0.002686 -16.529666 -0.590366 4.911940 -13.659102 11.363047 -3.532994 35.556678 8.762362 0.716261 8.752749 3.193384 0.199497 -7.922256 4.656780 -3.016604 -2.690170 -16.500548 -9.110036 -31.803075 -6.195660 -3.346910 -10.717465 0.000000 0.000000 0.000000 16.066015 16.604464 -26.922433 134.388640 -51.064457 97.286672 38.577727 2.304996 -29.201062 0.000000 0.000000 0.000000 -7.125000 0.000000 0.000000 10.500567 65.253400 -5.166808 0.000000 0.000000 0.000000 -126.894754 -62.923336 -71.424149 -83.902978 -59.858645 -54.722398 -34.936340 -44.684247 12.386069 0.000000 0.000000 0.000000 7.125000 0.000000 0.000000 -7.171064 44.855673 -0.025666
